<svg xmlns="http://www.w3.org/2000/svg" viewBox="0 0 1024 1024" width="1024" height="1024">
  <g transform="translate(229.142 782.295) scale(0.761 -0.761)">
    <path d="M426.000 -18.000 Q342.000 -18.000 270.500 8.000 Q199.000 34.000 146.500 82.500 Q94.000 131.000 64.000 200.000 Q34.000 269.000 34.000 354.000 Q34.000 439.000 64.000 508.000 Q94.000 577.000 146.000 626.000 Q198.000 675.000 268.000 701.500 Q338.000 728.000 418.000 728.000 Q501.000 728.000 575.500 701.000 Q650.000 674.000 697.000 627.000 L558.000 460.000 Q536.000 486.000 506.000 501.500 Q476.000 517.000 432.000 517.000 Q403.000 517.000 375.500 505.500 Q348.000 494.000 327.000 472.500 Q306.000 451.000 293.000 421.000 Q280.000 391.000 280.000 354.000 Q280.000 280.000 318.500 233.500 Q357.000 187.000 442.000 187.000 Q457.000 187.000 473.000 189.500 Q489.000 192.000 498.000 197.000 L498.000 251.000 L384.000 251.000 L384.000 438.000 L709.000 438.000 L709.000 51.000 Q684.000 36.000 651.500 23.500 Q619.000 11.000 582.500 2.000 Q546.000 -7.000 506.000 -12.500 Q466.000 -18.000 426.000 -18.000 Z" fill="white"/>
  </g>
</svg>
